{"title":"Solo A Star Wars Story 2018 720p BluRay x264 ESub [MW]","magnet":"magnet:?xt=urn:btih:b92f9efac0f5e91f951b973ce4128a627718a51b&dn=Solo+A+Star+Wars+Story+2018+720p+BluRay+x264+ESub+%5BMW%5D&tr=udp%3A%2F%2Ftracker.leechers-paradise.org%3A6969&tr=udp%3A%2F%2Fzer0day.ch%3A1337&tr=udp%3A%2F%2Fopen.demonii.com%3A1337&tr=udp%3A%2F%2Ftracker.coppersurfer.tk%3A6969&tr=udp%3A%2F%2Fexodus.desync.com%3A6969","uploader":"MFreaky","categoryP":"video","categoryS":"hd___movies","size":"1320476998","seeders":"117","leechers":"143","description":" <a href=\"https://pichub.site/image/Ds17X\" rel=\"nofollow\" target=\"_NEW\">https://pichub.site/image/Ds17X</a> <a href=\"\nhttps://pichub.site/image/Ds9N8\" rel=\"nofollow\" target=\"_NEW\">\nhttps://pichub.site/image/Ds9N8</a> <a href=\"\nhttps://pichub.site/image/DsH1J\" rel=\"nofollow\" target=\"_NEW\">\nhttps://pichub.site/image/DsH1J</a> <a href=\"\nhttps://pichub.site/image/DsFO5\" rel=\"nofollow\" target=\"_NEW\">\nhttps://pichub.site/image/DsFO5</a> <a href=\"\nhttps://pichub.site/image/DsW6j\" rel=\"nofollow\" target=\"_NEW\">\nhttps://pichub.site/image/DsW6j</a> <a href=\"\nhttps://pichub.site/image/DsQBh\" rel=\"nofollow\" target=\"_NEW\">\nhttps://pichub.site/image/DsQBh</a>\r\n\r\nIMDB <a href=\"\nhttps://www.imdb.com/title/tt3778644/\" rel=\"nofollow\" target=\"_NEW\">\nhttps://www.imdb.com/title/tt3778644/</a>\r\n\r\nVideo\r\nID                                       : 1\r\nFormat                                   : AVC\r\nFormat/Info                              : Advanced Video Codec\r\nFormat profile                           : High@L4.1\r\nFormat settings                          : CABAC / 4 Ref Frames\r\nFormat settings, CABAC                   : Yes\r\nFormat settings, RefFrames               : 4 frames\r\nCodec ID                                 : V_MPEG4/ISO/AVC\r\nDuration                                 : 2 h 14 min\r\nBit rate                                 : 1 200 kb/s\r\nWidth                                    : 1 280 pixels\r\nHeight                                   : 536 pixels\r\nDisplay aspect ratio                     : 2.40:1\r\nFrame rate mode                          : Constant\r\nFrame rate                               : 23.976 (24000/1001) FPS\r\nColor space                              : YUV\r\nChroma subsampling                       : 4:2:0\r\nBit depth                                : 8 bits\r\nScan type                                : Progressive\r\nBits/(Pixel*Frame)                       : 0.073\r\nStream size                              : 1.14 GiB (93%)\r\nWriting library                          : x264 core 155 r2901 7d0ff22\r\nDefault                                  : Yes\r\nForced                                   : No\r\n\r\nAudio\r\nID                                       : 2\r\nFormat                                   : AAC\r\nFormat/Info                              : Advanced Audio Codec\r\nFormat profile                           : HE-AAC / LC\r\nFormat settings                          : Explicit\r\nCodec ID                                 : A_AAC-2\r\nDuration                                 : 2 h 14 min\r\nBit rate                                 : 96.0 kb/s\r\nChannel(s)                               : 2 channels\r\nChannel positions                        : Front: L R\r\nSampling rate                            : 48.0 kHz / 24.0 kHz\r\nFrame rate                               : 23.438 FPS (1024 SPF)\r\nCompression mode                         : Lossy\r\nStream size                              : 91.3 MiB (7%)\r\nLanguage                                 : English\r\nDefault                                  : Yes\r\nForced                                   : No","last_updated":"2018-09-10T12:27:47.591Z","parsed":{"xt":"urn:btih:b92f9efac0f5e91f951b973ce4128a627718a51b","dn":"Solo A Star Wars Story 2018 720p BluRay x264 ESub [MW]","tr":["udp://exodus.desync.com:6969","udp://open.demonii.com:1337","udp://tracker.coppersurfer.tk:6969","udp://tracker.leechers-paradise.org:6969","udp://zer0day.ch:1337"],"infoHash":"b92f9efac0f5e91f951b973ce4128a627718a51b","infoHashBuffer":{"type":"Buffer","data":[185,47,158,250,192,245,233,31,149,27,151,60,228,18,138,98,119,24,165,27]},"name":"Solo A Star Wars Story 2018 720p BluRay x264 ESub [MW]","announce":["udp://exodus.desync.com:6969","udp://open.demonii.com:1337","udp://tracker.coppersurfer.tk:6969","udp://tracker.leechers-paradise.org:6969","udp://zer0day.ch:1337"],"urlList":[]}}